<svg xmlns="http://www.w3.org/2000/svg" xmlns:xlink="http://www.w3.org/1999/xlink" width="320" zoomAndPan="magnify" viewBox="0 0 240 239.999995" height="320" preserveAspectRatio="xMidYMid meet" version="1.0"><defs><g/></defs><rect x="-24" width="288" fill="#ffffff" y="-23.999999" height="287.999994" fill-opacity="1"/><rect x="-24" width="288" fill="#f6f5f5" y="-23.999999" height="287.999994" fill-opacity="1"/><g fill="#6d6e71" fill-opacity="1"><g transform="translate(40.883723, 120.712748)"><g><path d="M 6.375 -6.375 C 7.625 -6.195312 8.515625 -5.832031 9.046875 -5.28125 C 9.578125 -4.738281 9.84375 -4.078125 9.84375 -3.296875 C 9.84375 -2.648438 9.675781 -2.078125 9.34375 -1.578125 C 9.019531 -1.078125 8.550781 -0.6875 7.9375 -0.40625 C 7.320312 -0.132812 6.59375 0 5.75 0 C 5.445312 0 5.1875 -0.00390625 4.96875 -0.015625 C 4.25 -0.0351562 3.535156 -0.046875 2.828125 -0.046875 C 1.898438 -0.046875 1.195312 -0.03125 0.71875 0 L 0.71875 -0.34375 C 1.125 -0.363281 1.421875 -0.40625 1.609375 -0.46875 C 1.796875 -0.539062 1.921875 -0.671875 1.984375 -0.859375 C 2.054688 -1.054688 2.09375 -1.375 2.09375 -1.8125 L 2.09375 -10.25 C 2.09375 -10.6875 2.054688 -11 1.984375 -11.1875 C 1.921875 -11.382812 1.796875 -11.515625 1.609375 -11.578125 C 1.421875 -11.648438 1.125 -11.695312 0.71875 -11.71875 L 0.71875 -12.0625 C 1.195312 -12.019531 1.890625 -12 2.796875 -12 L 4.625 -12.03125 C 4.84375 -12.039062 5.085938 -12.046875 5.359375 -12.046875 C 6.523438 -12.046875 7.414062 -11.800781 8.03125 -11.3125 C 8.644531 -10.820312 8.953125 -10.171875 8.953125 -9.359375 C 8.953125 -8.703125 8.742188 -8.113281 8.328125 -7.59375 C 7.921875 -7.070312 7.269531 -6.675781 6.375 -6.40625 Z M 4.9375 -11.71875 C 4.582031 -11.71875 4.316406 -11.675781 4.140625 -11.59375 C 3.972656 -11.519531 3.851562 -11.378906 3.78125 -11.171875 C 3.707031 -10.960938 3.671875 -10.65625 3.671875 -10.25 L 3.671875 -6.40625 L 4.8125 -6.40625 C 5.75 -6.40625 6.398438 -6.65625 6.765625 -7.15625 C 7.140625 -7.664062 7.328125 -8.34375 7.328125 -9.1875 C 7.328125 -10.03125 7.140625 -10.660156 6.765625 -11.078125 C 6.390625 -11.503906 5.78125 -11.71875 4.9375 -11.71875 Z M 4.953125 -0.390625 C 7.078125 -0.390625 8.140625 -1.382812 8.140625 -3.375 C 8.140625 -4.269531 7.894531 -4.945312 7.40625 -5.40625 C 6.925781 -5.875 6.160156 -6.109375 5.109375 -6.109375 L 3.671875 -6.109375 L 3.671875 -1.8125 C 3.671875 -1.394531 3.707031 -1.085938 3.78125 -0.890625 C 3.851562 -0.703125 3.972656 -0.570312 4.140625 -0.5 C 4.316406 -0.425781 4.585938 -0.390625 4.953125 -0.390625 Z M 4.953125 -0.390625 "/></g></g></g><g fill="#6d6e71" fill-opacity="1"><g transform="translate(53.197379, 120.712748)"><g><path d="M 11.234375 -0.84375 C 10.972656 -0.457031 10.710938 -0.179688 10.453125 -0.015625 C 10.191406 0.148438 9.847656 0.234375 9.421875 0.234375 C 8.953125 0.234375 8.566406 0.0976562 8.265625 -0.171875 C 7.960938 -0.441406 7.738281 -0.914062 7.59375 -1.59375 L 7.21875 -3.296875 C 7.082031 -3.890625 6.953125 -4.34375 6.828125 -4.65625 C 6.710938 -4.976562 6.535156 -5.234375 6.296875 -5.421875 C 6.054688 -5.617188 5.722656 -5.71875 5.296875 -5.71875 L 3.671875 -5.71875 L 3.671875 -1.8125 C 3.671875 -1.375 3.707031 -1.054688 3.78125 -0.859375 C 3.851562 -0.671875 3.976562 -0.539062 4.15625 -0.46875 C 4.34375 -0.40625 4.644531 -0.363281 5.0625 -0.34375 L 5.0625 0 C 4.539062 -0.03125 3.816406 -0.046875 2.890625 -0.046875 C 1.921875 -0.046875 1.195312 -0.03125 0.71875 0 L 0.71875 -0.34375 C 1.125 -0.363281 1.421875 -0.40625 1.609375 -0.46875 C 1.796875 -0.539062 1.921875 -0.671875 1.984375 -0.859375 C 2.054688 -1.054688 2.09375 -1.375 2.09375 -1.8125 L 2.09375 -10.25 C 2.09375 -10.6875 2.054688 -11 1.984375 -11.1875 C 1.921875 -11.382812 1.796875 -11.515625 1.609375 -11.578125 C 1.421875 -11.648438 1.125 -11.695312 0.71875 -11.71875 L 0.71875 -12.0625 C 1.195312 -12.019531 1.890625 -12 2.796875 -12 L 4.625 -12.03125 C 4.84375 -12.039062 5.085938 -12.046875 5.359375 -12.046875 C 6.679688 -12.046875 7.695312 -11.769531 8.40625 -11.21875 C 9.113281 -10.664062 9.46875 -9.953125 9.46875 -9.078125 C 9.46875 -8.628906 9.363281 -8.179688 9.15625 -7.734375 C 8.945312 -7.285156 8.59375 -6.882812 8.09375 -6.53125 C 7.601562 -6.175781 6.960938 -5.9375 6.171875 -5.8125 L 6.375 -5.78125 C 7.125 -5.65625 7.664062 -5.425781 8 -5.09375 C 8.34375 -4.757812 8.59375 -4.238281 8.75 -3.53125 L 9.1875 -1.78125 C 9.289062 -1.257812 9.40625 -0.894531 9.53125 -0.6875 C 9.65625 -0.488281 9.828125 -0.390625 10.046875 -0.390625 C 10.242188 -0.390625 10.40625 -0.441406 10.53125 -0.546875 C 10.664062 -0.648438 10.816406 -0.8125 10.984375 -1.03125 Z M 4.9375 -11.71875 C 4.582031 -11.71875 4.316406 -11.675781 4.140625 -11.59375 C 3.972656 -11.519531 3.851562 -11.378906 3.78125 -11.171875 C 3.707031 -10.960938 3.671875 -10.65625 3.671875 -10.25 L 3.671875 -6.0625 L 4.8125 -6.0625 C 5.9375 -6.0625 6.707031 -6.3125 7.125 -6.8125 C 7.550781 -7.3125 7.765625 -8.003906 7.765625 -8.890625 C 7.765625 -9.816406 7.539062 -10.519531 7.09375 -11 C 6.65625 -11.476562 5.9375 -11.71875 4.9375 -11.71875 Z M 4.9375 -11.71875 "/></g></g></g><g fill="#6d6e71" fill-opacity="1"><g transform="translate(65.936799, 120.712748)"><g><path d="M 8.734375 -12 C 9.242188 -12 9.671875 -12.019531 10.015625 -12.0625 L 10.015625 -11.71875 C 9.785156 -11.65625 9.5625 -11.507812 9.34375 -11.28125 C 9.132812 -11.050781 8.90625 -10.691406 8.65625 -10.203125 L 5.984375 -4.90625 L 5.984375 -1.8125 C 5.984375 -1.375 6.015625 -1.054688 6.078125 -0.859375 C 6.148438 -0.671875 6.28125 -0.539062 6.46875 -0.46875 C 6.65625 -0.40625 6.953125 -0.363281 7.359375 -0.34375 L 7.359375 0 C 6.835938 -0.03125 6.113281 -0.046875 5.1875 -0.046875 C 4.21875 -0.046875 3.492188 -0.03125 3.015625 0 L 3.015625 -0.34375 C 3.421875 -0.363281 3.71875 -0.40625 3.90625 -0.46875 C 4.09375 -0.539062 4.21875 -0.671875 4.28125 -0.859375 C 4.351562 -1.054688 4.390625 -1.375 4.390625 -1.8125 L 4.390625 -4.359375 L 0.9375 -10.75 C 0.726562 -11.125 0.546875 -11.375 0.390625 -11.5 C 0.242188 -11.632812 0.0976562 -11.703125 -0.046875 -11.703125 L -0.046875 -12.0625 C 0.390625 -12.019531 0.890625 -12 1.453125 -12 C 2.546875 -12 3.335938 -12.019531 3.828125 -12.0625 L 3.828125 -11.703125 C 3.035156 -11.703125 2.640625 -11.484375 2.640625 -11.046875 C 2.640625 -10.878906 2.695312 -10.679688 2.8125 -10.453125 L 5.640625 -5.03125 L 7.8125 -9.34375 C 8.125 -9.945312 8.28125 -10.4375 8.28125 -10.8125 C 8.28125 -11.132812 8.15625 -11.363281 7.90625 -11.5 C 7.65625 -11.632812 7.28125 -11.707031 6.78125 -11.71875 L 6.78125 -12.0625 C 7.425781 -12.019531 8.078125 -12 8.734375 -12 Z M 8.734375 -12 "/></g></g></g><g fill="#6d6e71" fill-opacity="1"><g transform="translate(77.70548, 120.712748)"><g><path d="M 9.65625 -1.4375 C 9.925781 -0.726562 10.316406 -0.363281 10.828125 -0.34375 L 10.828125 0 C 10.378906 -0.03125 9.773438 -0.046875 9.015625 -0.046875 C 8.035156 -0.046875 7.304688 -0.03125 6.828125 0 L 6.828125 -0.34375 C 7.265625 -0.363281 7.570312 -0.414062 7.75 -0.5 C 7.9375 -0.582031 8.03125 -0.738281 8.03125 -0.96875 C 8.03125 -1.164062 7.960938 -1.429688 7.828125 -1.765625 L 6.796875 -4.5625 L 2.671875 -4.5625 L 1.96875 -2.765625 C 1.75 -2.148438 1.640625 -1.679688 1.640625 -1.359375 C 1.640625 -1.003906 1.757812 -0.75 2 -0.59375 C 2.25 -0.4375 2.617188 -0.351562 3.109375 -0.34375 L 3.109375 0 C 2.460938 -0.03125 1.8125 -0.046875 1.15625 -0.046875 C 0.644531 -0.046875 0.21875 -0.03125 -0.125 0 L -0.125 -0.34375 C 0.445312 -0.476562 0.894531 -0.972656 1.21875 -1.828125 L 5.234375 -12.140625 L 5.5 -12.140625 Z M 6.65625 -4.90625 L 4.75 -10 L 2.8125 -4.90625 Z M 6.65625 -4.90625 "/></g></g></g><g fill="#6d6e71" fill-opacity="1"><g transform="translate(90.138353, 120.712748)"><g><path d="M 11.40625 -11.71875 C 11.007812 -11.695312 10.710938 -11.632812 10.515625 -11.53125 C 10.328125 -11.4375 10.195312 -11.28125 10.125 -11.0625 C 10.0625 -10.84375 10.03125 -10.515625 10.03125 -10.078125 L 10.03125 0.078125 L 9.640625 0.078125 L 2.484375 -10.96875 L 2.484375 -1.96875 C 2.484375 -1.53125 2.519531 -1.203125 2.59375 -0.984375 C 2.664062 -0.773438 2.8125 -0.617188 3.03125 -0.515625 C 3.25 -0.421875 3.582031 -0.363281 4.03125 -0.34375 L 4.03125 0 C 3.625 -0.03125 3.046875 -0.046875 2.296875 -0.046875 C 1.617188 -0.046875 1.09375 -0.03125 0.71875 0 L 0.71875 -0.34375 C 1.113281 -0.363281 1.40625 -0.421875 1.59375 -0.515625 C 1.789062 -0.617188 1.921875 -0.78125 1.984375 -1 C 2.054688 -1.21875 2.09375 -1.539062 2.09375 -1.96875 L 2.09375 -10.25 C 2.09375 -10.6875 2.054688 -11 1.984375 -11.1875 C 1.921875 -11.382812 1.796875 -11.515625 1.609375 -11.578125 C 1.421875 -11.648438 1.125 -11.695312 0.71875 -11.71875 L 0.71875 -12.0625 C 1.09375 -12.019531 1.617188 -12 2.296875 -12 C 2.804688 -12 3.25 -12.019531 3.625 -12.0625 L 9.640625 -2.796875 L 9.640625 -10.078125 C 9.640625 -10.523438 9.601562 -10.851562 9.53125 -11.0625 C 9.457031 -11.28125 9.3125 -11.4375 9.09375 -11.53125 C 8.875 -11.632812 8.539062 -11.695312 8.09375 -11.71875 L 8.09375 -12.0625 C 8.5 -12.019531 9.078125 -12 9.828125 -12 C 10.503906 -12 11.03125 -12.019531 11.40625 -12.0625 Z M 11.40625 -11.71875 "/></g></g></g><g fill="#6d6e71" fill-opacity="1"><g transform="translate(103.865535, 120.712748)"><g/></g></g><g fill="#6d6e71" fill-opacity="1"><g transform="translate(109.809816, 120.712748)"><g><path d="M 9.21875 -12.0625 C 9.132812 -11.25 9.09375 -10.519531 9.09375 -9.875 C 9.09375 -9.3125 9.109375 -8.847656 9.140625 -8.484375 L 8.75 -8.484375 C 8.664062 -9.359375 8.550781 -10.003906 8.40625 -10.421875 C 8.269531 -10.847656 8.03125 -11.160156 7.6875 -11.359375 C 7.351562 -11.566406 6.832031 -11.671875 6.125 -11.671875 L 5.0625 -11.671875 C 4.644531 -11.671875 4.34375 -11.640625 4.15625 -11.578125 C 3.976562 -11.515625 3.851562 -11.382812 3.78125 -11.1875 C 3.707031 -11 3.671875 -10.6875 3.671875 -10.25 L 3.671875 -6.0625 L 4.921875 -6.0625 C 5.316406 -6.0625 5.625 -6.15625 5.84375 -6.34375 C 6.0625 -6.53125 6.207031 -6.75 6.28125 -7 C 6.351562 -7.257812 6.410156 -7.582031 6.453125 -7.96875 L 6.5 -8.3125 L 6.890625 -8.3125 C 6.859375 -7.832031 6.84375 -7.296875 6.84375 -6.703125 L 6.84375 -5.890625 C 6.84375 -5.316406 6.878906 -4.507812 6.953125 -3.46875 L 6.5625 -3.46875 C 6.550781 -3.550781 6.515625 -3.828125 6.453125 -4.296875 C 6.398438 -4.765625 6.242188 -5.117188 5.984375 -5.359375 C 5.734375 -5.597656 5.378906 -5.71875 4.921875 -5.71875 L 3.671875 -5.71875 L 3.671875 -1.8125 C 3.671875 -1.375 3.71875 -1.054688 3.8125 -0.859375 C 3.90625 -0.671875 4.0625 -0.539062 4.28125 -0.46875 C 4.507812 -0.40625 4.882812 -0.363281 5.40625 -0.34375 L 5.40625 0 C 4.8125 -0.03125 3.972656 -0.046875 2.890625 -0.046875 C 1.921875 -0.046875 1.195312 -0.03125 0.71875 0 L 0.71875 -0.34375 C 1.125 -0.363281 1.421875 -0.40625 1.609375 -0.46875 C 1.796875 -0.539062 1.921875 -0.671875 1.984375 -0.859375 C 2.054688 -1.054688 2.09375 -1.375 2.09375 -1.8125 L 2.09375 -10.25 C 2.09375 -10.6875 2.054688 -11 1.984375 -11.1875 C 1.921875 -11.382812 1.796875 -11.515625 1.609375 -11.578125 C 1.421875 -11.648438 1.125 -11.695312 0.71875 -11.71875 L 0.71875 -12.0625 C 1.832031 -12.019531 3.476562 -12 5.65625 -12 C 7.320312 -12 8.507812 -12.019531 9.21875 -12.0625 Z M 9.21875 -12.0625 "/></g></g></g><g fill="#6d6e71" fill-opacity="1"><g transform="translate(121.203827, 120.712748)"><g><path d="M 9.65625 -1.4375 C 9.925781 -0.726562 10.316406 -0.363281 10.828125 -0.34375 L 10.828125 0 C 10.378906 -0.03125 9.773438 -0.046875 9.015625 -0.046875 C 8.035156 -0.046875 7.304688 -0.03125 6.828125 0 L 6.828125 -0.34375 C 7.265625 -0.363281 7.570312 -0.414062 7.75 -0.5 C 7.9375 -0.582031 8.03125 -0.738281 8.03125 -0.96875 C 8.03125 -1.164062 7.960938 -1.429688 7.828125 -1.765625 L 6.796875 -4.5625 L 2.671875 -4.5625 L 1.96875 -2.765625 C 1.75 -2.148438 1.640625 -1.679688 1.640625 -1.359375 C 1.640625 -1.003906 1.757812 -0.75 2 -0.59375 C 2.25 -0.4375 2.617188 -0.351562 3.109375 -0.34375 L 3.109375 0 C 2.460938 -0.03125 1.8125 -0.046875 1.15625 -0.046875 C 0.644531 -0.046875 0.21875 -0.03125 -0.125 0 L -0.125 -0.34375 C 0.445312 -0.476562 0.894531 -0.972656 1.21875 -1.828125 L 5.234375 -12.140625 L 5.5 -12.140625 Z M 6.65625 -4.90625 L 4.75 -10 L 2.8125 -4.90625 Z M 6.65625 -4.90625 "/></g></g></g><g fill="#6d6e71" fill-opacity="1"><g transform="translate(133.636696, 120.712748)"><g><path d="M 14.171875 -12 C 14.679688 -12 15.109375 -12.019531 15.453125 -12.0625 L 15.453125 -11.71875 C 14.816406 -11.570312 14.367188 -11.078125 14.109375 -10.234375 L 10.890625 0.078125 L 10.609375 0.078125 L 7.640625 -8.6875 L 4.9375 0.078125 L 4.671875 0.078125 L 1.0625 -10.625 C 0.820312 -11.332031 0.425781 -11.695312 -0.125 -11.71875 L -0.125 -12.0625 C 0.34375 -12.019531 0.953125 -12 1.703125 -12 C 2.515625 -12 3.128906 -12.019531 3.546875 -12.0625 L 3.546875 -11.71875 C 3.234375 -11.695312 3.015625 -11.640625 2.890625 -11.546875 C 2.765625 -11.453125 2.703125 -11.3125 2.703125 -11.125 C 2.703125 -10.9375 2.765625 -10.65625 2.890625 -10.28125 L 5.375 -2.6875 L 7.453125 -9.28125 L 7 -10.625 C 6.769531 -11.332031 6.4375 -11.695312 6 -11.71875 L 6 -12.0625 C 6.40625 -12.019531 6.953125 -12 7.640625 -12 C 8.617188 -12 9.347656 -12.019531 9.828125 -12.0625 L 9.828125 -11.71875 C 9.398438 -11.695312 9.097656 -11.648438 8.921875 -11.578125 C 8.753906 -11.503906 8.671875 -11.347656 8.671875 -11.109375 C 8.671875 -10.898438 8.726562 -10.625 8.84375 -10.28125 L 11.296875 -2.703125 L 13.390625 -9.296875 C 13.566406 -9.859375 13.65625 -10.316406 13.65625 -10.671875 C 13.65625 -11.046875 13.539062 -11.3125 13.3125 -11.46875 C 13.09375 -11.625 12.726562 -11.707031 12.21875 -11.71875 L 12.21875 -12.0625 C 12.863281 -12.019531 13.515625 -12 14.171875 -12 Z M 14.171875 -12 "/></g></g></g><g fill="#6d6e71" fill-opacity="1"><g transform="translate(150.752923, 120.712748)"><g><path d="M 6.3125 -12.296875 C 7 -12.296875 7.578125 -12.195312 8.046875 -12 C 8.523438 -11.8125 8.992188 -11.539062 9.453125 -11.1875 C 9.578125 -11.082031 9.6875 -11.03125 9.78125 -11.03125 C 10 -11.03125 10.144531 -11.375 10.21875 -12.0625 L 10.609375 -12.0625 C 10.566406 -11.320312 10.546875 -10.015625 10.546875 -8.140625 L 10.15625 -8.140625 C 10.03125 -8.878906 9.914062 -9.410156 9.8125 -9.734375 C 9.707031 -10.054688 9.535156 -10.363281 9.296875 -10.65625 C 8.953125 -11.101562 8.515625 -11.4375 7.984375 -11.65625 C 7.460938 -11.875 6.894531 -11.984375 6.28125 -11.984375 C 5.539062 -11.984375 4.894531 -11.738281 4.34375 -11.25 C 3.800781 -10.769531 3.375 -10.078125 3.0625 -9.171875 C 2.757812 -8.265625 2.609375 -7.207031 2.609375 -6 C 2.609375 -4.757812 2.769531 -3.695312 3.09375 -2.8125 C 3.425781 -1.925781 3.882812 -1.253906 4.46875 -0.796875 C 5.050781 -0.335938 5.710938 -0.109375 6.453125 -0.109375 C 7.023438 -0.109375 7.578125 -0.210938 8.109375 -0.421875 C 8.640625 -0.640625 9.054688 -0.960938 9.359375 -1.390625 C 9.585938 -1.710938 9.753906 -2.054688 9.859375 -2.421875 C 9.960938 -2.785156 10.0625 -3.34375 10.15625 -4.09375 L 10.546875 -4.09375 C 10.546875 -2.132812 10.566406 -0.769531 10.609375 0 L 10.21875 0 C 10.1875 -0.363281 10.140625 -0.617188 10.078125 -0.765625 C 10.015625 -0.921875 9.925781 -1 9.8125 -1 C 9.71875 -1 9.597656 -0.957031 9.453125 -0.875 C 8.941406 -0.507812 8.453125 -0.234375 7.984375 -0.046875 C 7.523438 0.140625 6.960938 0.234375 6.296875 0.234375 C 5.222656 0.234375 4.28125 -0.00390625 3.46875 -0.484375 C 2.65625 -0.972656 2.023438 -1.679688 1.578125 -2.609375 C 1.128906 -3.535156 0.90625 -4.640625 0.90625 -5.921875 C 0.90625 -7.171875 1.132812 -8.28125 1.59375 -9.25 C 2.050781 -10.21875 2.691406 -10.96875 3.515625 -11.5 C 4.335938 -12.03125 5.269531 -12.296875 6.3125 -12.296875 Z M 6.3125 -12.296875 "/></g></g></g><g fill="#6d6e71" fill-opacity="1"><g transform="translate(164.173556, 120.712748)"><g><path d="M 9.4375 -2.1875 C 9.4375 -1.53125 9.472656 -0.800781 9.546875 0 C 8.773438 -0.03125 7.476562 -0.046875 5.65625 -0.046875 C 3.476562 -0.046875 1.832031 -0.03125 0.71875 0 L 0.71875 -0.34375 C 1.125 -0.363281 1.421875 -0.40625 1.609375 -0.46875 C 1.796875 -0.539062 1.921875 -0.671875 1.984375 -0.859375 C 2.054688 -1.054688 2.09375 -1.375 2.09375 -1.8125 L 2.09375 -10.25 C 2.09375 -10.6875 2.054688 -11 1.984375 -11.1875 C 1.921875 -11.382812 1.796875 -11.515625 1.609375 -11.578125 C 1.421875 -11.648438 1.125 -11.695312 0.71875 -11.71875 L 0.71875 -12.0625 C 1.832031 -12.019531 3.476562 -12 5.65625 -12 C 7.320312 -12 8.507812 -12.019531 9.21875 -12.0625 C 9.132812 -11.3125 9.09375 -10.640625 9.09375 -10.046875 C 9.09375 -9.609375 9.109375 -9.257812 9.140625 -9 L 8.75 -9 C 8.675781 -9.726562 8.578125 -10.269531 8.453125 -10.625 C 8.328125 -10.988281 8.113281 -11.253906 7.8125 -11.421875 C 7.519531 -11.585938 7.070312 -11.671875 6.46875 -11.671875 L 5.0625 -11.671875 C 4.644531 -11.671875 4.34375 -11.640625 4.15625 -11.578125 C 3.976562 -11.515625 3.851562 -11.382812 3.78125 -11.1875 C 3.707031 -11 3.671875 -10.6875 3.671875 -10.25 L 3.671875 -6.234375 L 4.796875 -6.234375 C 5.203125 -6.234375 5.507812 -6.328125 5.71875 -6.515625 C 5.9375 -6.703125 6.082031 -6.921875 6.15625 -7.171875 C 6.226562 -7.429688 6.285156 -7.753906 6.328125 -8.140625 L 6.390625 -8.484375 L 6.78125 -8.484375 C 6.75 -8.003906 6.734375 -7.46875 6.734375 -6.875 L 6.734375 -6.0625 C 6.734375 -5.476562 6.765625 -4.671875 6.828125 -3.640625 L 6.4375 -3.640625 C 6.425781 -3.722656 6.390625 -4 6.328125 -4.46875 C 6.273438 -4.9375 6.117188 -5.289062 5.859375 -5.53125 C 5.609375 -5.769531 5.253906 -5.890625 4.796875 -5.890625 L 3.671875 -5.890625 L 3.671875 -1.8125 C 3.671875 -1.375 3.707031 -1.054688 3.78125 -0.859375 C 3.851562 -0.671875 3.976562 -0.546875 4.15625 -0.484375 C 4.34375 -0.421875 4.644531 -0.390625 5.0625 -0.390625 L 6.296875 -0.390625 C 7.003906 -0.390625 7.539062 -0.484375 7.90625 -0.671875 C 8.28125 -0.859375 8.550781 -1.160156 8.71875 -1.578125 C 8.882812 -1.992188 9.007812 -2.601562 9.09375 -3.40625 L 9.484375 -3.40625 C 9.453125 -3.101562 9.4375 -2.695312 9.4375 -2.1875 Z M 9.4375 -2.1875 "/></g></g></g><g fill="#6d6e71" fill-opacity="1"><g transform="translate(176.248788, 120.712748)"><g><path d="M 10.078125 -12.0625 C 10.003906 -11.25 9.96875 -10.519531 9.96875 -9.875 C 9.96875 -9.3125 9.984375 -8.847656 10.015625 -8.484375 L 9.625 -8.484375 C 9.53125 -9.359375 9.414062 -10.003906 9.28125 -10.421875 C 9.144531 -10.847656 8.90625 -11.160156 8.5625 -11.359375 C 8.226562 -11.566406 7.707031 -11.671875 7 -11.671875 L 6.078125 -11.671875 L 6.078125 -1.96875 C 6.078125 -1.5 6.125 -1.15625 6.21875 -0.9375 C 6.3125 -0.71875 6.46875 -0.566406 6.6875 -0.484375 C 6.914062 -0.410156 7.285156 -0.363281 7.796875 -0.34375 L 7.796875 0 C 7.210938 -0.03125 6.378906 -0.046875 5.296875 -0.046875 C 4.160156 -0.046875 3.320312 -0.03125 2.78125 0 L 2.78125 -0.34375 C 3.289062 -0.363281 3.65625 -0.410156 3.875 -0.484375 C 4.101562 -0.566406 4.265625 -0.71875 4.359375 -0.9375 C 4.453125 -1.15625 4.5 -1.5 4.5 -1.96875 L 4.5 -11.671875 L 3.578125 -11.671875 C 2.867188 -11.671875 2.34375 -11.566406 2 -11.359375 C 1.664062 -11.160156 1.429688 -10.847656 1.296875 -10.421875 C 1.160156 -10.003906 1.046875 -9.359375 0.953125 -8.484375 L 0.5625 -8.484375 C 0.59375 -8.847656 0.609375 -9.3125 0.609375 -9.875 C 0.609375 -10.519531 0.570312 -11.25 0.5 -12.0625 C 1.4375 -12.019531 3.035156 -12 5.296875 -12 C 7.546875 -12 9.140625 -12.019531 10.078125 -12.0625 Z M 10.078125 -12.0625 "/></g></g></g><g fill="#6d6e71" fill-opacity="1"><g transform="translate(188.528383, 120.712748)"><g><path d="M 10.078125 -12.0625 C 10.003906 -11.25 9.96875 -10.519531 9.96875 -9.875 C 9.96875 -9.3125 9.984375 -8.847656 10.015625 -8.484375 L 9.625 -8.484375 C 9.53125 -9.359375 9.414062 -10.003906 9.28125 -10.421875 C 9.144531 -10.847656 8.90625 -11.160156 8.5625 -11.359375 C 8.226562 -11.566406 7.707031 -11.671875 7 -11.671875 L 6.078125 -11.671875 L 6.078125 -1.96875 C 6.078125 -1.5 6.125 -1.15625 6.21875 -0.9375 C 6.3125 -0.71875 6.46875 -0.566406 6.6875 -0.484375 C 6.914062 -0.410156 7.285156 -0.363281 7.796875 -0.34375 L 7.796875 0 C 7.210938 -0.03125 6.378906 -0.046875 5.296875 -0.046875 C 4.160156 -0.046875 3.320312 -0.03125 2.78125 0 L 2.78125 -0.34375 C 3.289062 -0.363281 3.65625 -0.410156 3.875 -0.484375 C 4.101562 -0.566406 4.265625 -0.71875 4.359375 -0.9375 C 4.453125 -1.15625 4.5 -1.5 4.5 -1.96875 L 4.5 -11.671875 L 3.578125 -11.671875 C 2.867188 -11.671875 2.34375 -11.566406 2 -11.359375 C 1.664062 -11.160156 1.429688 -10.847656 1.296875 -10.421875 C 1.160156 -10.003906 1.046875 -9.359375 0.953125 -8.484375 L 0.5625 -8.484375 C 0.59375 -8.847656 0.609375 -9.3125 0.609375 -9.875 C 0.609375 -10.519531 0.570312 -11.25 0.5 -12.0625 C 1.4375 -12.019531 3.035156 -12 5.296875 -12 C 7.546875 -12 9.140625 -12.019531 10.078125 -12.0625 Z M 10.078125 -12.0625 "/></g></g></g><g fill="#6d6e71" fill-opacity="1"><g transform="translate(96.421325, 143.284473)"><g><path d="M 1.5625 0.03125 C 1.300781 0.03125 1.046875 -0.0078125 0.796875 -0.09375 C 0.554688 -0.175781 0.367188 -0.289062 0.234375 -0.4375 L 0.390625 -0.71875 C 0.515625 -0.59375 0.679688 -0.488281 0.890625 -0.40625 C 1.109375 -0.332031 1.332031 -0.296875 1.5625 -0.296875 C 1.882812 -0.296875 2.125 -0.351562 2.28125 -0.46875 C 2.445312 -0.582031 2.53125 -0.734375 2.53125 -0.921875 C 2.53125 -1.066406 2.484375 -1.179688 2.390625 -1.265625 C 2.304688 -1.347656 2.203125 -1.410156 2.078125 -1.453125 C 1.953125 -1.503906 1.773438 -1.554688 1.546875 -1.609375 C 1.285156 -1.679688 1.070312 -1.75 0.90625 -1.8125 C 0.75 -1.875 0.613281 -1.96875 0.5 -2.09375 C 0.382812 -2.226562 0.328125 -2.40625 0.328125 -2.625 C 0.328125 -2.800781 0.375 -2.960938 0.46875 -3.109375 C 0.5625 -3.265625 0.707031 -3.382812 0.90625 -3.46875 C 1.101562 -3.5625 1.347656 -3.609375 1.640625 -3.609375 C 1.847656 -3.609375 2.050781 -3.578125 2.25 -3.515625 C 2.445312 -3.460938 2.613281 -3.390625 2.75 -3.296875 L 2.625 -2.984375 C 2.476562 -3.085938 2.316406 -3.160156 2.140625 -3.203125 C 1.972656 -3.253906 1.804688 -3.28125 1.640625 -3.28125 C 1.328125 -3.28125 1.09375 -3.21875 0.9375 -3.09375 C 0.78125 -2.976562 0.703125 -2.828125 0.703125 -2.640625 C 0.703125 -2.492188 0.742188 -2.375 0.828125 -2.28125 C 0.910156 -2.195312 1.019531 -2.128906 1.15625 -2.078125 C 1.289062 -2.035156 1.46875 -1.988281 1.6875 -1.9375 C 1.945312 -1.875 2.15625 -1.8125 2.3125 -1.75 C 2.476562 -1.6875 2.617188 -1.585938 2.734375 -1.453125 C 2.847656 -1.328125 2.90625 -1.15625 2.90625 -0.9375 C 2.90625 -0.757812 2.851562 -0.597656 2.75 -0.453125 C 2.65625 -0.304688 2.507812 -0.1875 2.3125 -0.09375 C 2.113281 -0.0078125 1.863281 0.03125 1.5625 0.03125 Z M 1.5625 0.03125 "/></g></g></g><g fill="#6d6e71" fill-opacity="1"><g transform="translate(101.609151, 143.284473)"><g><path d="M 0.578125 -3.578125 L 0.953125 -3.578125 L 0.953125 0 L 0.578125 0 Z M 0.578125 -3.578125 "/></g></g></g><g fill="#6d6e71" fill-opacity="1"><g transform="translate(105.197179, 143.284473)"><g><path d="M 3.578125 -3.578125 L 3.578125 0 L 3.265625 0 L 0.953125 -2.90625 L 0.953125 0 L 0.578125 0 L 0.578125 -3.578125 L 0.890625 -3.578125 L 3.203125 -0.671875 L 3.203125 -3.578125 Z M 3.578125 -3.578125 "/></g></g></g><g fill="#6d6e71" fill-opacity="1"><g transform="translate(111.397019, 143.284473)"><g><path d="M 2.140625 0.03125 C 1.785156 0.03125 1.460938 -0.046875 1.171875 -0.203125 C 0.890625 -0.359375 0.664062 -0.570312 0.5 -0.84375 C 0.34375 -1.125 0.265625 -1.4375 0.265625 -1.78125 C 0.265625 -2.125 0.34375 -2.4375 0.5 -2.71875 C 0.664062 -3 0.890625 -3.21875 1.171875 -3.375 C 1.460938 -3.53125 1.785156 -3.609375 2.140625 -3.609375 C 2.410156 -3.609375 2.65625 -3.5625 2.875 -3.46875 C 3.101562 -3.382812 3.296875 -3.257812 3.453125 -3.09375 L 3.203125 -2.84375 C 2.929688 -3.125 2.582031 -3.265625 2.15625 -3.265625 C 1.875 -3.265625 1.613281 -3.195312 1.375 -3.0625 C 1.144531 -2.9375 0.960938 -2.757812 0.828125 -2.53125 C 0.703125 -2.3125 0.640625 -2.0625 0.640625 -1.78125 C 0.640625 -1.507812 0.703125 -1.257812 0.828125 -1.03125 C 0.960938 -0.800781 1.144531 -0.625 1.375 -0.5 C 1.613281 -0.375 1.875 -0.3125 2.15625 -0.3125 C 2.582031 -0.3125 2.929688 -0.453125 3.203125 -0.734375 L 3.453125 -0.5 C 3.296875 -0.320312 3.101562 -0.1875 2.875 -0.09375 C 2.644531 -0.0078125 2.398438 0.03125 2.140625 0.03125 Z M 2.140625 0.03125 "/></g></g></g><g fill="#6d6e71" fill-opacity="1"><g transform="translate(117.11641, 143.284473)"><g><path d="M 3.109375 -0.328125 L 3.109375 0 L 0.578125 0 L 0.578125 -3.578125 L 3.03125 -3.578125 L 3.03125 -3.25 L 0.953125 -3.25 L 0.953125 -1.984375 L 2.8125 -1.984375 L 2.8125 -1.65625 L 0.953125 -1.65625 L 0.953125 -0.328125 Z M 3.109375 -0.328125 "/></g></g></g><g fill="#6d6e71" fill-opacity="1"><g transform="translate(122.580241, 143.284473)"><g/></g></g><g fill="#6d6e71" fill-opacity="1"><g transform="translate(125.963826, 143.284473)"><g><path d="M 1.25 -3.578125 L 1.25 0 L 0.890625 0 L 0.890625 -3.25 L 0.046875 -3.25 L 0.046875 -3.578125 Z M 1.25 -3.578125 "/></g></g></g><g fill="#6d6e71" fill-opacity="1"><g transform="translate(129.853416, 143.284473)"><g><path d="M 1.375 -3.609375 C 1.851562 -3.609375 2.21875 -3.453125 2.46875 -3.140625 C 2.71875 -2.828125 2.84375 -2.382812 2.84375 -1.8125 C 2.84375 -1.414062 2.773438 -1.078125 2.640625 -0.796875 C 2.503906 -0.523438 2.3125 -0.316406 2.0625 -0.171875 C 1.820312 -0.0351562 1.535156 0.03125 1.203125 0.03125 C 0.847656 0.03125 0.566406 -0.03125 0.359375 -0.15625 L 0.515625 -0.453125 C 0.679688 -0.347656 0.910156 -0.296875 1.203125 -0.296875 C 1.597656 -0.296875 1.90625 -0.421875 2.125 -0.671875 C 2.351562 -0.921875 2.46875 -1.28125 2.46875 -1.75 C 2.46875 -1.84375 2.460938 -1.941406 2.453125 -2.046875 C 2.367188 -1.847656 2.226562 -1.695312 2.03125 -1.59375 C 1.84375 -1.488281 1.617188 -1.4375 1.359375 -1.4375 C 1.128906 -1.4375 0.921875 -1.476562 0.734375 -1.5625 C 0.554688 -1.65625 0.414062 -1.78125 0.3125 -1.9375 C 0.207031 -2.101562 0.15625 -2.296875 0.15625 -2.515625 C 0.15625 -2.722656 0.207031 -2.910156 0.3125 -3.078125 C 0.414062 -3.253906 0.5625 -3.382812 0.75 -3.46875 C 0.9375 -3.5625 1.144531 -3.609375 1.375 -3.609375 Z M 1.421875 -1.75 C 1.597656 -1.75 1.753906 -1.78125 1.890625 -1.84375 C 2.035156 -1.914062 2.144531 -2.007812 2.21875 -2.125 C 2.300781 -2.25 2.34375 -2.382812 2.34375 -2.53125 C 2.34375 -2.664062 2.304688 -2.789062 2.234375 -2.90625 C 2.160156 -3.019531 2.050781 -3.113281 1.90625 -3.1875 C 1.757812 -3.257812 1.585938 -3.296875 1.390625 -3.296875 C 1.128906 -3.296875 0.914062 -3.222656 0.75 -3.078125 C 0.59375 -2.941406 0.515625 -2.753906 0.515625 -2.515625 C 0.515625 -2.285156 0.59375 -2.097656 0.75 -1.953125 C 0.914062 -1.816406 1.140625 -1.75 1.421875 -1.75 Z M 1.421875 -1.75 "/></g></g></g><g fill="#6d6e71" fill-opacity="1"><g transform="translate(135.010573, 143.284473)"><g><path d="M 2.3125 -1.875 C 2.539062 -1.800781 2.710938 -1.6875 2.828125 -1.53125 C 2.953125 -1.382812 3.015625 -1.207031 3.015625 -1 C 3.015625 -0.789062 2.957031 -0.609375 2.84375 -0.453125 C 2.726562 -0.296875 2.566406 -0.175781 2.359375 -0.09375 C 2.148438 -0.0078125 1.90625 0.03125 1.625 0.03125 C 1.195312 0.03125 0.859375 -0.0546875 0.609375 -0.234375 C 0.367188 -0.421875 0.25 -0.675781 0.25 -1 C 0.25 -1.207031 0.304688 -1.382812 0.421875 -1.53125 C 0.535156 -1.6875 0.707031 -1.800781 0.9375 -1.875 C 0.75 -1.945312 0.609375 -2.050781 0.515625 -2.1875 C 0.421875 -2.320312 0.375 -2.476562 0.375 -2.65625 C 0.375 -2.945312 0.484375 -3.175781 0.703125 -3.34375 C 0.929688 -3.519531 1.238281 -3.609375 1.625 -3.609375 C 1.875 -3.609375 2.09375 -3.566406 2.28125 -3.484375 C 2.46875 -3.410156 2.613281 -3.300781 2.71875 -3.15625 C 2.832031 -3.019531 2.890625 -2.851562 2.890625 -2.65625 C 2.890625 -2.476562 2.835938 -2.320312 2.734375 -2.1875 C 2.640625 -2.050781 2.5 -1.945312 2.3125 -1.875 Z M 0.734375 -2.65625 C 0.734375 -2.457031 0.8125 -2.300781 0.96875 -2.1875 C 1.125 -2.070312 1.34375 -2.015625 1.625 -2.015625 C 1.894531 -2.015625 2.109375 -2.070312 2.265625 -2.1875 C 2.429688 -2.300781 2.515625 -2.453125 2.515625 -2.640625 C 2.515625 -2.847656 2.429688 -3.007812 2.265625 -3.125 C 2.109375 -3.238281 1.894531 -3.296875 1.625 -3.296875 C 1.351562 -3.296875 1.132812 -3.238281 0.96875 -3.125 C 0.8125 -3.007812 0.734375 -2.851562 0.734375 -2.65625 Z M 1.625 -0.28125 C 1.9375 -0.28125 2.179688 -0.34375 2.359375 -0.46875 C 2.546875 -0.601562 2.640625 -0.78125 2.640625 -1 C 2.640625 -1.21875 2.546875 -1.390625 2.359375 -1.515625 C 2.179688 -1.648438 1.9375 -1.71875 1.625 -1.71875 C 1.3125 -1.71875 1.066406 -1.648438 0.890625 -1.515625 C 0.710938 -1.390625 0.625 -1.21875 0.625 -1 C 0.625 -0.78125 0.710938 -0.601562 0.890625 -0.46875 C 1.066406 -0.34375 1.3125 -0.28125 1.625 -0.28125 Z M 1.625 -0.28125 "/></g></g></g><g fill="#6d6e71" fill-opacity="1"><g transform="translate(140.315957, 143.284473)"><g><path d="M 2.3125 -1.875 C 2.539062 -1.800781 2.710938 -1.6875 2.828125 -1.53125 C 2.953125 -1.382812 3.015625 -1.207031 3.015625 -1 C 3.015625 -0.789062 2.957031 -0.609375 2.84375 -0.453125 C 2.726562 -0.296875 2.566406 -0.175781 2.359375 -0.09375 C 2.148438 -0.0078125 1.90625 0.03125 1.625 0.03125 C 1.195312 0.03125 0.859375 -0.0546875 0.609375 -0.234375 C 0.367188 -0.421875 0.25 -0.675781 0.25 -1 C 0.25 -1.207031 0.304688 -1.382812 0.421875 -1.53125 C 0.535156 -1.6875 0.707031 -1.800781 0.9375 -1.875 C 0.75 -1.945312 0.609375 -2.050781 0.515625 -2.1875 C 0.421875 -2.320312 0.375 -2.476562 0.375 -2.65625 C 0.375 -2.945312 0.484375 -3.175781 0.703125 -3.34375 C 0.929688 -3.519531 1.238281 -3.609375 1.625 -3.609375 C 1.875 -3.609375 2.09375 -3.566406 2.28125 -3.484375 C 2.46875 -3.410156 2.613281 -3.300781 2.71875 -3.15625 C 2.832031 -3.019531 2.890625 -2.851562 2.890625 -2.65625 C 2.890625 -2.476562 2.835938 -2.320312 2.734375 -2.1875 C 2.640625 -2.050781 2.5 -1.945312 2.3125 -1.875 Z M 0.734375 -2.65625 C 0.734375 -2.457031 0.8125 -2.300781 0.96875 -2.1875 C 1.125 -2.070312 1.34375 -2.015625 1.625 -2.015625 C 1.894531 -2.015625 2.109375 -2.070312 2.265625 -2.1875 C 2.429688 -2.300781 2.515625 -2.453125 2.515625 -2.640625 C 2.515625 -2.847656 2.429688 -3.007812 2.265625 -3.125 C 2.109375 -3.238281 1.894531 -3.296875 1.625 -3.296875 C 1.351562 -3.296875 1.132812 -3.238281 0.96875 -3.125 C 0.8125 -3.007812 0.734375 -2.851562 0.734375 -2.65625 Z M 1.625 -0.28125 C 1.9375 -0.28125 2.179688 -0.34375 2.359375 -0.46875 C 2.546875 -0.601562 2.640625 -0.78125 2.640625 -1 C 2.640625 -1.21875 2.546875 -1.390625 2.359375 -1.515625 C 2.179688 -1.648438 1.9375 -1.71875 1.625 -1.71875 C 1.3125 -1.71875 1.066406 -1.648438 0.890625 -1.515625 C 0.710938 -1.390625 0.625 -1.21875 0.625 -1 C 0.625 -0.78125 0.710938 -0.601562 0.890625 -0.46875 C 1.066406 -0.34375 1.3125 -0.28125 1.625 -0.28125 Z M 1.625 -0.28125 "/></g></g></g><path stroke-linecap="round" transform="matrix(0.75, 0, 0, 0.75, 31.761153, 130.947018)" fill="none" stroke-linejoin="miter" d="M 0.500754 0.497726 L 234.802853 0.497726 " stroke="#6d6e71" stroke-width="1" stroke-opacity="1" stroke-miterlimit="4"/><path stroke-linecap="round" transform="matrix(0.75, 0, 0, 0.75, 31.761153, 97.724643)" fill="none" stroke-linejoin="miter" d="M 0.500754 0.502559 L 234.802853 0.502559 " stroke="#6d6e71" stroke-width="1" stroke-opacity="1" stroke-miterlimit="4"/></svg>