<svg xmlns="http://www.w3.org/2000/svg" xmlns:xlink="http://www.w3.org/1999/xlink" width="500" zoomAndPan="magnify" viewBox="0 0 375 149.999998" height="200" preserveAspectRatio="xMidYMid meet" version="1.0"><defs><g/></defs><g fill="#f6f5f5" fill-opacity="1"><g transform="translate(35.075257, 83.461795)"><g><path d="M 12.125 -12.125 C 14.5 -11.800781 16.191406 -11.113281 17.203125 -10.0625 C 18.222656 -9.007812 18.734375 -7.75 18.734375 -6.28125 C 18.734375 -5.050781 18.414062 -3.960938 17.78125 -3.015625 C 17.15625 -2.066406 16.257812 -1.328125 15.09375 -0.796875 C 13.925781 -0.265625 12.546875 0 10.953125 0 C 10.367188 0 9.875 -0.0078125 9.46875 -0.03125 C 8.082031 -0.0703125 6.71875 -0.09375 5.375 -0.09375 C 3.601562 -0.09375 2.265625 -0.0625 1.359375 0 L 1.359375 -0.640625 C 2.140625 -0.691406 2.707031 -0.78125 3.0625 -0.90625 C 3.414062 -1.039062 3.65625 -1.289062 3.78125 -1.65625 C 3.914062 -2.019531 3.984375 -2.613281 3.984375 -3.4375 L 3.984375 -19.515625 C 3.984375 -20.328125 3.914062 -20.914062 3.78125 -21.28125 C 3.65625 -21.65625 3.414062 -21.90625 3.0625 -22.03125 C 2.707031 -22.164062 2.140625 -22.253906 1.359375 -22.296875 L 1.359375 -22.9375 C 2.265625 -22.875 3.582031 -22.84375 5.3125 -22.84375 L 8.8125 -22.875 C 9.226562 -22.894531 9.691406 -22.90625 10.203125 -22.90625 C 12.410156 -22.90625 14.101562 -22.441406 15.28125 -21.515625 C 16.457031 -20.585938 17.046875 -19.359375 17.046875 -17.828125 C 17.046875 -16.566406 16.648438 -15.441406 15.859375 -14.453125 C 15.078125 -13.460938 13.832031 -12.707031 12.125 -12.1875 Z M 9.390625 -22.296875 C 8.722656 -22.296875 8.222656 -22.21875 7.890625 -22.0625 C 7.554688 -21.914062 7.320312 -21.644531 7.1875 -21.25 C 7.0625 -20.863281 7 -20.285156 7 -19.515625 L 7 -12.1875 L 9.171875 -12.1875 C 10.941406 -12.1875 12.175781 -12.664062 12.875 -13.625 C 13.582031 -14.582031 13.9375 -15.863281 13.9375 -17.46875 C 13.9375 -19.082031 13.578125 -20.289062 12.859375 -21.09375 C 12.148438 -21.894531 10.992188 -22.296875 9.390625 -22.296875 Z M 9.4375 -0.75 C 13.46875 -0.75 15.484375 -2.640625 15.484375 -6.421875 C 15.484375 -8.117188 15.023438 -9.410156 14.109375 -10.296875 C 13.191406 -11.191406 11.726562 -11.640625 9.71875 -11.640625 L 7 -11.640625 L 7 -3.4375 C 7 -2.65625 7.0625 -2.082031 7.1875 -1.71875 C 7.320312 -1.351562 7.554688 -1.097656 7.890625 -0.953125 C 8.222656 -0.816406 8.738281 -0.75 9.4375 -0.75 Z M 9.4375 -0.75 "/></g></g></g><g fill="#f6f5f5" fill-opacity="1"><g transform="translate(58.507178, 83.461795)"><g><path d="M 21.390625 -1.625 C 20.890625 -0.882812 20.390625 -0.351562 19.890625 -0.03125 C 19.398438 0.289062 18.742188 0.453125 17.921875 0.453125 C 17.035156 0.453125 16.304688 0.191406 15.734375 -0.328125 C 15.160156 -0.847656 14.734375 -1.753906 14.453125 -3.046875 L 13.734375 -6.28125 C 13.472656 -7.40625 13.226562 -8.269531 13 -8.875 C 12.78125 -9.476562 12.441406 -9.960938 11.984375 -10.328125 C 11.535156 -10.703125 10.898438 -10.890625 10.078125 -10.890625 L 7 -10.890625 L 7 -3.4375 C 7 -2.613281 7.0625 -2.019531 7.1875 -1.65625 C 7.320312 -1.289062 7.566406 -1.039062 7.921875 -0.90625 C 8.273438 -0.78125 8.84375 -0.691406 9.625 -0.640625 L 9.625 0 C 8.632812 -0.0625 7.265625 -0.09375 5.515625 -0.09375 C 3.648438 -0.09375 2.265625 -0.0625 1.359375 0 L 1.359375 -0.640625 C 2.140625 -0.691406 2.707031 -0.78125 3.0625 -0.90625 C 3.414062 -1.039062 3.65625 -1.289062 3.78125 -1.65625 C 3.914062 -2.019531 3.984375 -2.613281 3.984375 -3.4375 L 3.984375 -19.515625 C 3.984375 -20.328125 3.914062 -20.914062 3.78125 -21.28125 C 3.65625 -21.65625 3.414062 -21.90625 3.0625 -22.03125 C 2.707031 -22.164062 2.140625 -22.253906 1.359375 -22.296875 L 1.359375 -22.9375 C 2.265625 -22.875 3.582031 -22.84375 5.3125 -22.84375 L 8.8125 -22.875 C 9.226562 -22.894531 9.691406 -22.90625 10.203125 -22.90625 C 12.710938 -22.90625 14.640625 -22.378906 15.984375 -21.328125 C 17.335938 -20.285156 18.015625 -18.929688 18.015625 -17.265625 C 18.015625 -16.429688 17.8125 -15.585938 17.40625 -14.734375 C 17.007812 -13.878906 16.34375 -13.109375 15.40625 -12.421875 C 14.46875 -11.742188 13.242188 -11.285156 11.734375 -11.046875 L 12.125 -10.984375 C 13.550781 -10.742188 14.585938 -10.3125 15.234375 -9.6875 C 15.878906 -9.0625 16.351562 -8.066406 16.65625 -6.703125 L 17.46875 -3.40625 C 17.6875 -2.40625 17.910156 -1.710938 18.140625 -1.328125 C 18.378906 -0.941406 18.707031 -0.75 19.125 -0.75 C 19.488281 -0.75 19.796875 -0.84375 20.046875 -1.03125 C 20.296875 -1.226562 20.582031 -1.546875 20.90625 -1.984375 Z M 9.390625 -22.296875 C 8.722656 -22.296875 8.222656 -22.21875 7.890625 -22.0625 C 7.554688 -21.914062 7.320312 -21.644531 7.1875 -21.25 C 7.0625 -20.863281 7 -20.285156 7 -19.515625 L 7 -11.53125 L 9.171875 -11.53125 C 11.304688 -11.53125 12.773438 -12.003906 13.578125 -12.953125 C 14.378906 -13.910156 14.78125 -15.234375 14.78125 -16.921875 C 14.78125 -18.691406 14.359375 -20.03125 13.515625 -20.9375 C 12.671875 -21.84375 11.296875 -22.296875 9.390625 -22.296875 Z M 9.390625 -22.296875 "/></g></g></g><g fill="#f6f5f5" fill-opacity="1"><g transform="translate(82.749297, 83.461795)"><g><path d="M 16.625 -22.84375 C 17.59375 -22.84375 18.40625 -22.875 19.0625 -22.9375 L 19.0625 -22.296875 C 18.625 -22.191406 18.195312 -21.914062 17.78125 -21.46875 C 17.375 -21.03125 16.9375 -20.34375 16.46875 -19.40625 L 11.375 -9.328125 L 11.375 -3.4375 C 11.375 -2.613281 11.4375 -2.019531 11.5625 -1.65625 C 11.695312 -1.289062 11.941406 -1.039062 12.296875 -0.90625 C 12.648438 -0.78125 13.21875 -0.691406 14 -0.640625 L 14 0 C 13.007812 -0.0625 11.640625 -0.09375 9.890625 -0.09375 C 8.023438 -0.09375 6.640625 -0.0625 5.734375 0 L 5.734375 -0.640625 C 6.515625 -0.691406 7.082031 -0.78125 7.4375 -0.90625 C 7.789062 -1.039062 8.03125 -1.289062 8.15625 -1.65625 C 8.289062 -2.019531 8.359375 -2.613281 8.359375 -3.4375 L 8.359375 -8.296875 L 1.78125 -20.453125 C 1.394531 -21.160156 1.054688 -21.640625 0.765625 -21.890625 C 0.472656 -22.140625 0.1875 -22.265625 -0.09375 -22.265625 L -0.09375 -22.9375 C 0.75 -22.875 1.695312 -22.84375 2.75 -22.84375 C 4.84375 -22.84375 6.359375 -22.875 7.296875 -22.9375 L 7.296875 -22.265625 C 5.773438 -22.265625 5.015625 -21.851562 5.015625 -21.03125 C 5.015625 -20.707031 5.125 -20.328125 5.34375 -19.890625 L 10.71875 -9.5625 L 14.875 -17.796875 C 15.457031 -18.941406 15.75 -19.867188 15.75 -20.578125 C 15.75 -21.179688 15.507812 -21.613281 15.03125 -21.875 C 14.5625 -22.132812 13.847656 -22.273438 12.890625 -22.296875 L 12.890625 -22.9375 C 14.128906 -22.875 15.375 -22.84375 16.625 -22.84375 Z M 16.625 -22.84375 "/></g></g></g><g fill="#f6f5f5" fill-opacity="1"><g transform="translate(105.144174, 83.461795)"><g><path d="M 18.375 -2.71875 C 18.894531 -1.382812 19.640625 -0.691406 20.609375 -0.640625 L 20.609375 0 C 19.742188 -0.0625 18.585938 -0.09375 17.140625 -0.09375 C 15.285156 -0.09375 13.90625 -0.0625 13 0 L 13 -0.640625 C 13.8125 -0.691406 14.394531 -0.796875 14.75 -0.953125 C 15.113281 -1.117188 15.296875 -1.414062 15.296875 -1.84375 C 15.296875 -2.207031 15.164062 -2.71875 14.90625 -3.375 L 12.9375 -8.6875 L 5.09375 -8.6875 L 3.765625 -5.25 C 3.328125 -4.082031 3.109375 -3.195312 3.109375 -2.59375 C 3.109375 -1.925781 3.335938 -1.441406 3.796875 -1.140625 C 4.265625 -0.835938 4.976562 -0.671875 5.9375 -0.640625 L 5.9375 0 C 4.695312 -0.0625 3.453125 -0.09375 2.203125 -0.09375 C 1.234375 -0.09375 0.421875 -0.0625 -0.234375 0 L -0.234375 -0.640625 C 0.847656 -0.898438 1.703125 -1.84375 2.328125 -3.46875 L 9.953125 -23.109375 L 10.46875 -23.109375 Z M 12.671875 -9.328125 L 9.046875 -19.015625 L 5.34375 -9.328125 Z M 12.671875 -9.328125 "/></g></g></g><g fill="#f6f5f5" fill-opacity="1"><g transform="translate(128.802957, 83.461795)"><g><path d="M 21.71875 -22.296875 C 20.957031 -22.253906 20.390625 -22.140625 20.015625 -21.953125 C 19.648438 -21.773438 19.40625 -21.472656 19.28125 -21.046875 C 19.15625 -20.628906 19.09375 -20.007812 19.09375 -19.1875 L 19.09375 0.15625 L 18.34375 0.15625 L 4.734375 -20.875 L 4.734375 -3.765625 C 4.734375 -2.921875 4.800781 -2.289062 4.9375 -1.875 C 5.082031 -1.46875 5.359375 -1.171875 5.765625 -0.984375 C 6.179688 -0.804688 6.820312 -0.691406 7.6875 -0.640625 L 7.6875 0 C 6.90625 -0.0625 5.800781 -0.09375 4.375 -0.09375 C 3.082031 -0.09375 2.078125 -0.0625 1.359375 0 L 1.359375 -0.640625 C 2.117188 -0.691406 2.679688 -0.804688 3.046875 -0.984375 C 3.410156 -1.171875 3.65625 -1.472656 3.78125 -1.890625 C 3.914062 -2.316406 3.984375 -2.941406 3.984375 -3.765625 L 3.984375 -19.515625 C 3.984375 -20.328125 3.914062 -20.914062 3.78125 -21.28125 C 3.65625 -21.65625 3.414062 -21.90625 3.0625 -22.03125 C 2.707031 -22.164062 2.140625 -22.253906 1.359375 -22.296875 L 1.359375 -22.9375 C 2.078125 -22.875 3.082031 -22.84375 4.375 -22.84375 C 5.34375 -22.84375 6.1875 -22.875 6.90625 -22.9375 L 18.34375 -5.3125 L 18.34375 -19.1875 C 18.34375 -20.03125 18.269531 -20.65625 18.125 -21.0625 C 17.988281 -21.476562 17.710938 -21.773438 17.296875 -21.953125 C 16.890625 -22.140625 16.253906 -22.253906 15.390625 -22.296875 L 15.390625 -22.9375 C 16.171875 -22.875 17.273438 -22.84375 18.703125 -22.84375 C 19.992188 -22.84375 21 -22.875 21.71875 -22.9375 Z M 21.71875 -22.296875 "/></g></g></g><g fill="#f6f5f5" fill-opacity="1"><g transform="translate(154.924707, 83.461795)"><g/></g></g><g fill="#f6f5f5" fill-opacity="1"><g transform="translate(166.236209, 83.461795)"><g><path d="M 17.53125 -22.9375 C 17.382812 -21.40625 17.3125 -20.023438 17.3125 -18.796875 C 17.3125 -17.710938 17.34375 -16.828125 17.40625 -16.140625 L 16.65625 -16.140625 C 16.476562 -17.804688 16.257812 -19.039062 16 -19.84375 C 15.75 -20.65625 15.296875 -21.25 14.640625 -21.625 C 13.992188 -22.007812 13.003906 -22.203125 11.671875 -22.203125 L 9.625 -22.203125 C 8.84375 -22.203125 8.273438 -22.140625 7.921875 -22.015625 C 7.566406 -21.898438 7.320312 -21.65625 7.1875 -21.28125 C 7.0625 -20.914062 7 -20.328125 7 -19.515625 L 7 -11.53125 L 9.359375 -11.53125 C 10.117188 -11.53125 10.703125 -11.707031 11.109375 -12.0625 C 11.523438 -12.425781 11.800781 -12.847656 11.9375 -13.328125 C 12.082031 -13.816406 12.195312 -14.429688 12.28125 -15.171875 L 12.375 -15.8125 L 13.125 -15.8125 C 13.0625 -14.90625 13.03125 -13.890625 13.03125 -12.765625 L 13.03125 -11.21875 C 13.03125 -10.113281 13.09375 -8.578125 13.21875 -6.609375 L 12.46875 -6.609375 C 12.445312 -6.765625 12.382812 -7.289062 12.28125 -8.1875 C 12.175781 -9.082031 11.878906 -9.753906 11.390625 -10.203125 C 10.898438 -10.660156 10.222656 -10.890625 9.359375 -10.890625 L 7 -10.890625 L 7 -3.4375 C 7 -2.613281 7.082031 -2.019531 7.25 -1.65625 C 7.425781 -1.289062 7.726562 -1.039062 8.15625 -0.90625 C 8.59375 -0.78125 9.296875 -0.691406 10.265625 -0.640625 L 10.265625 0 C 9.148438 -0.0625 7.566406 -0.09375 5.515625 -0.09375 C 3.648438 -0.09375 2.265625 -0.0625 1.359375 0 L 1.359375 -0.640625 C 2.140625 -0.691406 2.707031 -0.78125 3.0625 -0.90625 C 3.414062 -1.039062 3.65625 -1.289062 3.78125 -1.65625 C 3.914062 -2.019531 3.984375 -2.613281 3.984375 -3.4375 L 3.984375 -19.515625 C 3.984375 -20.328125 3.914062 -20.914062 3.78125 -21.28125 C 3.65625 -21.65625 3.414062 -21.90625 3.0625 -22.03125 C 2.707031 -22.164062 2.140625 -22.253906 1.359375 -22.296875 L 1.359375 -22.9375 C 3.472656 -22.875 6.609375 -22.84375 10.765625 -22.84375 C 13.929688 -22.84375 16.1875 -22.875 17.53125 -22.9375 Z M 17.53125 -22.9375 "/></g></g></g><g fill="#f6f5f5" fill-opacity="1"><g transform="translate(187.918119, 83.461795)"><g><path d="M 18.375 -2.71875 C 18.894531 -1.382812 19.640625 -0.691406 20.609375 -0.640625 L 20.609375 0 C 19.742188 -0.0625 18.585938 -0.09375 17.140625 -0.09375 C 15.285156 -0.09375 13.90625 -0.0625 13 0 L 13 -0.640625 C 13.8125 -0.691406 14.394531 -0.796875 14.75 -0.953125 C 15.113281 -1.117188 15.296875 -1.414062 15.296875 -1.84375 C 15.296875 -2.207031 15.164062 -2.71875 14.90625 -3.375 L 12.9375 -8.6875 L 5.09375 -8.6875 L 3.765625 -5.25 C 3.328125 -4.082031 3.109375 -3.195312 3.109375 -2.59375 C 3.109375 -1.925781 3.335938 -1.441406 3.796875 -1.140625 C 4.265625 -0.835938 4.976562 -0.671875 5.9375 -0.640625 L 5.9375 0 C 4.695312 -0.0625 3.453125 -0.09375 2.203125 -0.09375 C 1.234375 -0.09375 0.421875 -0.0625 -0.234375 0 L -0.234375 -0.640625 C 0.847656 -0.898438 1.703125 -1.84375 2.328125 -3.46875 L 9.953125 -23.109375 L 10.46875 -23.109375 Z M 12.671875 -9.328125 L 9.046875 -19.015625 L 5.34375 -9.328125 Z M 12.671875 -9.328125 "/></g></g></g><g fill="#f6f5f5" fill-opacity="1"><g transform="translate(211.576893, 83.461795)"><g><path d="M 26.96875 -22.84375 C 27.9375 -22.84375 28.742188 -22.875 29.390625 -22.9375 L 29.390625 -22.296875 C 28.179688 -22.015625 27.328125 -21.070312 26.828125 -19.46875 L 20.703125 0.15625 L 20.1875 0.15625 L 14.546875 -16.53125 L 9.390625 0.15625 L 8.875 0.15625 L 2.015625 -20.21875 C 1.554688 -21.5625 0.804688 -22.253906 -0.234375 -22.296875 L -0.234375 -22.9375 C 0.660156 -22.875 1.816406 -22.84375 3.234375 -22.84375 C 4.796875 -22.84375 5.960938 -22.875 6.734375 -22.9375 L 6.734375 -22.296875 C 6.148438 -22.253906 5.738281 -22.144531 5.5 -21.96875 C 5.269531 -21.800781 5.15625 -21.53125 5.15625 -21.15625 C 5.15625 -20.8125 5.273438 -20.285156 5.515625 -19.578125 L 10.234375 -5.125 L 14.1875 -17.65625 L 13.3125 -20.21875 C 12.882812 -21.5625 12.25 -22.253906 11.40625 -22.296875 L 11.40625 -22.9375 C 12.1875 -22.875 13.234375 -22.84375 14.546875 -22.84375 C 16.410156 -22.84375 17.796875 -22.875 18.703125 -22.9375 L 18.703125 -22.296875 C 17.878906 -22.253906 17.304688 -22.160156 16.984375 -22.015625 C 16.660156 -21.878906 16.5 -21.582031 16.5 -21.125 C 16.5 -20.738281 16.601562 -20.222656 16.8125 -19.578125 L 21.484375 -5.15625 L 25.46875 -17.6875 C 25.8125 -18.75 25.984375 -19.625 25.984375 -20.3125 C 25.984375 -21.03125 25.765625 -21.535156 25.328125 -21.828125 C 24.898438 -22.117188 24.203125 -22.273438 23.234375 -22.296875 L 23.234375 -22.9375 C 24.460938 -22.875 25.707031 -22.84375 26.96875 -22.84375 Z M 26.96875 -22.84375 "/></g></g></g><g fill="#f6f5f5" fill-opacity="1"><g transform="translate(244.147731, 83.461795)"><g><path d="M 12.015625 -23.390625 C 13.316406 -23.390625 14.421875 -23.207031 15.328125 -22.84375 C 16.234375 -22.476562 17.117188 -21.960938 17.984375 -21.296875 C 18.222656 -21.097656 18.425781 -21 18.59375 -21 C 19.03125 -21 19.3125 -21.644531 19.4375 -22.9375 L 20.1875 -22.9375 C 20.101562 -21.539062 20.0625 -19.054688 20.0625 -15.484375 L 19.3125 -15.484375 C 19.070312 -16.890625 18.851562 -17.898438 18.65625 -18.515625 C 18.46875 -19.128906 18.144531 -19.71875 17.6875 -20.28125 C 17.039062 -21.125 16.210938 -21.753906 15.203125 -22.171875 C 14.203125 -22.597656 13.117188 -22.8125 11.953125 -22.8125 C 10.546875 -22.8125 9.316406 -22.347656 8.265625 -21.421875 C 7.222656 -20.492188 6.410156 -19.171875 5.828125 -17.453125 C 5.242188 -15.734375 4.953125 -13.71875 4.953125 -11.40625 C 4.953125 -9.050781 5.265625 -7.03125 5.890625 -5.34375 C 6.523438 -3.65625 7.394531 -2.375 8.5 -1.5 C 9.613281 -0.625 10.875 -0.1875 12.28125 -0.1875 C 13.363281 -0.1875 14.410156 -0.390625 15.421875 -0.796875 C 16.441406 -1.210938 17.242188 -1.832031 17.828125 -2.65625 C 18.253906 -3.257812 18.566406 -3.90625 18.765625 -4.59375 C 18.960938 -5.289062 19.144531 -6.351562 19.3125 -7.78125 L 20.0625 -7.78125 C 20.0625 -4.0625 20.101562 -1.46875 20.1875 0 L 19.4375 0 C 19.375 -0.6875 19.28125 -1.175781 19.15625 -1.46875 C 19.039062 -1.757812 18.878906 -1.90625 18.671875 -1.90625 C 18.492188 -1.90625 18.265625 -1.820312 17.984375 -1.65625 C 17.015625 -0.957031 16.085938 -0.429688 15.203125 -0.078125 C 14.316406 0.273438 13.242188 0.453125 11.984375 0.453125 C 9.929688 0.453125 8.132812 -0.0078125 6.59375 -0.9375 C 5.050781 -1.863281 3.851562 -3.207031 3 -4.96875 C 2.144531 -6.726562 1.71875 -8.832031 1.71875 -11.28125 C 1.71875 -13.65625 2.15625 -15.757812 3.03125 -17.59375 C 3.90625 -19.425781 5.125 -20.847656 6.6875 -21.859375 C 8.257812 -22.878906 10.035156 -23.390625 12.015625 -23.390625 Z M 12.015625 -23.390625 "/></g></g></g><g fill="#f6f5f5" fill-opacity="1"><g transform="translate(269.686144, 83.461795)"><g><path d="M 17.953125 -4.140625 C 17.953125 -2.910156 18.03125 -1.53125 18.1875 0 C 16.707031 -0.0625 14.234375 -0.09375 10.765625 -0.09375 C 6.609375 -0.09375 3.472656 -0.0625 1.359375 0 L 1.359375 -0.640625 C 2.140625 -0.691406 2.707031 -0.78125 3.0625 -0.90625 C 3.414062 -1.039062 3.65625 -1.289062 3.78125 -1.65625 C 3.914062 -2.019531 3.984375 -2.613281 3.984375 -3.4375 L 3.984375 -19.515625 C 3.984375 -20.328125 3.914062 -20.914062 3.78125 -21.28125 C 3.65625 -21.65625 3.414062 -21.90625 3.0625 -22.03125 C 2.707031 -22.164062 2.140625 -22.253906 1.359375 -22.296875 L 1.359375 -22.9375 C 3.472656 -22.875 6.609375 -22.84375 10.765625 -22.84375 C 13.929688 -22.84375 16.1875 -22.875 17.53125 -22.9375 C 17.382812 -21.519531 17.3125 -20.25 17.3125 -19.125 C 17.3125 -18.28125 17.34375 -17.609375 17.40625 -17.109375 L 16.65625 -17.109375 C 16.507812 -18.515625 16.316406 -19.554688 16.078125 -20.234375 C 15.835938 -20.921875 15.4375 -21.421875 14.875 -21.734375 C 14.3125 -22.046875 13.457031 -22.203125 12.3125 -22.203125 L 9.625 -22.203125 C 8.84375 -22.203125 8.273438 -22.140625 7.921875 -22.015625 C 7.566406 -21.898438 7.320312 -21.65625 7.1875 -21.28125 C 7.0625 -20.914062 7 -20.328125 7 -19.515625 L 7 -11.859375 L 9.140625 -11.859375 C 9.890625 -11.859375 10.46875 -12.035156 10.875 -12.390625 C 11.289062 -12.753906 11.566406 -13.175781 11.703125 -13.65625 C 11.847656 -14.144531 11.96875 -14.753906 12.0625 -15.484375 L 12.15625 -16.140625 L 12.890625 -16.140625 C 12.828125 -15.234375 12.796875 -14.21875 12.796875 -13.09375 L 12.796875 -11.53125 C 12.796875 -10.4375 12.863281 -8.90625 13 -6.9375 L 12.25 -6.9375 C 12.226562 -7.082031 12.160156 -7.601562 12.046875 -8.5 C 11.941406 -9.394531 11.644531 -10.070312 11.15625 -10.53125 C 10.675781 -10.988281 10.003906 -11.21875 9.140625 -11.21875 L 7 -11.21875 L 7 -3.4375 C 7 -2.613281 7.0625 -2.019531 7.1875 -1.65625 C 7.320312 -1.289062 7.566406 -1.046875 7.921875 -0.921875 C 8.273438 -0.804688 8.84375 -0.75 9.625 -0.75 L 11.984375 -0.75 C 13.328125 -0.75 14.347656 -0.925781 15.046875 -1.28125 C 15.753906 -1.632812 16.269531 -2.207031 16.59375 -3 C 16.914062 -3.789062 17.15625 -4.953125 17.3125 -6.484375 L 18.046875 -6.484375 C 17.984375 -5.898438 17.953125 -5.117188 17.953125 -4.140625 Z M 17.953125 -4.140625 "/></g></g></g><g fill="#f6f5f5" fill-opacity="1"><g transform="translate(292.664365, 83.461795)"><g><path d="M 19.1875 -22.9375 C 19.03125 -21.40625 18.953125 -20.023438 18.953125 -18.796875 C 18.953125 -17.710938 18.988281 -16.828125 19.0625 -16.140625 L 18.3125 -16.140625 C 18.132812 -17.804688 17.914062 -19.039062 17.65625 -19.84375 C 17.394531 -20.65625 16.941406 -21.25 16.296875 -21.625 C 15.648438 -22.007812 14.65625 -22.203125 13.3125 -22.203125 L 11.5625 -22.203125 L 11.5625 -3.765625 C 11.5625 -2.847656 11.648438 -2.1875 11.828125 -1.78125 C 12.003906 -1.375 12.304688 -1.09375 12.734375 -0.9375 C 13.171875 -0.789062 13.875 -0.691406 14.84375 -0.640625 L 14.84375 0 C 13.71875 -0.0625 12.128906 -0.09375 10.078125 -0.09375 C 7.921875 -0.09375 6.320312 -0.0625 5.28125 0 L 5.28125 -0.640625 C 6.25 -0.691406 6.945312 -0.789062 7.375 -0.9375 C 7.8125 -1.09375 8.117188 -1.375 8.296875 -1.78125 C 8.472656 -2.1875 8.5625 -2.847656 8.5625 -3.765625 L 8.5625 -22.203125 L 6.8125 -22.203125 C 5.46875 -22.203125 4.472656 -22.007812 3.828125 -21.625 C 3.179688 -21.25 2.726562 -20.65625 2.46875 -19.84375 C 2.207031 -19.039062 1.988281 -17.804688 1.8125 -16.140625 L 1.0625 -16.140625 C 1.132812 -16.828125 1.171875 -17.710938 1.171875 -18.796875 C 1.171875 -20.023438 1.09375 -21.40625 0.9375 -22.9375 C 2.726562 -22.875 5.773438 -22.84375 10.078125 -22.84375 C 14.359375 -22.84375 17.394531 -22.875 19.1875 -22.9375 Z M 19.1875 -22.9375 "/></g></g></g><g fill="#f6f5f5" fill-opacity="1"><g transform="translate(316.031471, 83.461795)"><g><path d="M 19.1875 -22.9375 C 19.03125 -21.40625 18.953125 -20.023438 18.953125 -18.796875 C 18.953125 -17.710938 18.988281 -16.828125 19.0625 -16.140625 L 18.3125 -16.140625 C 18.132812 -17.804688 17.914062 -19.039062 17.65625 -19.84375 C 17.394531 -20.65625 16.941406 -21.25 16.296875 -21.625 C 15.648438 -22.007812 14.65625 -22.203125 13.3125 -22.203125 L 11.5625 -22.203125 L 11.5625 -3.765625 C 11.5625 -2.847656 11.648438 -2.1875 11.828125 -1.78125 C 12.003906 -1.375 12.304688 -1.09375 12.734375 -0.9375 C 13.171875 -0.789062 13.875 -0.691406 14.84375 -0.640625 L 14.84375 0 C 13.71875 -0.0625 12.128906 -0.09375 10.078125 -0.09375 C 7.921875 -0.09375 6.320312 -0.0625 5.28125 0 L 5.28125 -0.640625 C 6.25 -0.691406 6.945312 -0.789062 7.375 -0.9375 C 7.8125 -1.09375 8.117188 -1.375 8.296875 -1.78125 C 8.472656 -2.1875 8.5625 -2.847656 8.5625 -3.765625 L 8.5625 -22.203125 L 6.8125 -22.203125 C 5.46875 -22.203125 4.472656 -22.007812 3.828125 -21.625 C 3.179688 -21.25 2.726562 -20.65625 2.46875 -19.84375 C 2.207031 -19.039062 1.988281 -17.804688 1.8125 -16.140625 L 1.0625 -16.140625 C 1.132812 -16.828125 1.171875 -17.710938 1.171875 -18.796875 C 1.171875 -20.023438 1.09375 -21.40625 0.9375 -22.9375 C 2.726562 -22.875 5.773438 -22.84375 10.078125 -22.84375 C 14.359375 -22.84375 17.394531 -22.875 19.1875 -22.9375 Z M 19.1875 -22.9375 "/></g></g></g><g fill="#f6f5f5" fill-opacity="1"><g transform="translate(142.631636, 115.308256)"><g><path d="M 2.984375 0.0625 C 2.472656 0.0625 1.984375 -0.015625 1.515625 -0.171875 C 1.054688 -0.335938 0.703125 -0.554688 0.453125 -0.828125 L 0.734375 -1.375 C 0.984375 -1.132812 1.3125 -0.9375 1.71875 -0.78125 C 2.125 -0.625 2.546875 -0.546875 2.984375 -0.546875 C 3.585938 -0.546875 4.039062 -0.65625 4.34375 -0.875 C 4.65625 -1.101562 4.8125 -1.398438 4.8125 -1.765625 C 4.8125 -2.035156 4.726562 -2.25 4.5625 -2.40625 C 4.394531 -2.570312 4.191406 -2.695312 3.953125 -2.78125 C 3.710938 -2.875 3.378906 -2.972656 2.953125 -3.078125 C 2.441406 -3.203125 2.03125 -3.320312 1.71875 -3.4375 C 1.414062 -3.5625 1.15625 -3.742188 0.9375 -3.984375 C 0.726562 -4.234375 0.625 -4.570312 0.625 -5 C 0.625 -5.34375 0.710938 -5.65625 0.890625 -5.9375 C 1.078125 -6.21875 1.359375 -6.441406 1.734375 -6.609375 C 2.109375 -6.773438 2.570312 -6.859375 3.125 -6.859375 C 3.519531 -6.859375 3.898438 -6.804688 4.265625 -6.703125 C 4.640625 -6.597656 4.960938 -6.453125 5.234375 -6.265625 L 5 -5.6875 C 4.707031 -5.875 4.398438 -6.015625 4.078125 -6.109375 C 3.753906 -6.203125 3.4375 -6.25 3.125 -6.25 C 2.53125 -6.25 2.082031 -6.132812 1.78125 -5.90625 C 1.476562 -5.675781 1.328125 -5.378906 1.328125 -5.015625 C 1.328125 -4.742188 1.410156 -4.523438 1.578125 -4.359375 C 1.742188 -4.191406 1.953125 -4.0625 2.203125 -3.96875 C 2.453125 -3.882812 2.785156 -3.789062 3.203125 -3.6875 C 3.703125 -3.570312 4.101562 -3.453125 4.40625 -3.328125 C 4.71875 -3.210938 4.976562 -3.03125 5.1875 -2.78125 C 5.40625 -2.539062 5.515625 -2.210938 5.515625 -1.796875 C 5.515625 -1.453125 5.421875 -1.140625 5.234375 -0.859375 C 5.054688 -0.578125 4.773438 -0.351562 4.390625 -0.1875 C 4.003906 -0.0195312 3.535156 0.0625 2.984375 0.0625 Z M 2.984375 0.0625 "/></g></g></g><g fill="#f6f5f5" fill-opacity="1"><g transform="translate(152.503662, 115.308256)"><g><path d="M 1.109375 -6.796875 L 1.828125 -6.796875 L 1.828125 0 L 1.109375 0 Z M 1.109375 -6.796875 "/></g></g></g><g fill="#f6f5f5" fill-opacity="1"><g transform="translate(159.331398, 115.308256)"><g><path d="M 6.796875 -6.796875 L 6.796875 0 L 6.203125 0 L 1.828125 -5.515625 L 1.828125 0 L 1.109375 0 L 1.109375 -6.796875 L 1.703125 -6.796875 L 6.078125 -1.28125 L 6.078125 -6.796875 Z M 6.796875 -6.796875 "/></g></g></g><g fill="#f6f5f5" fill-opacity="1"><g transform="translate(171.129208, 115.308256)"><g><path d="M 4.0625 0.0625 C 3.382812 0.0625 2.773438 -0.0820312 2.234375 -0.375 C 1.691406 -0.675781 1.265625 -1.09375 0.953125 -1.625 C 0.648438 -2.15625 0.5 -2.75 0.5 -3.40625 C 0.5 -4.0625 0.648438 -4.648438 0.953125 -5.171875 C 1.265625 -5.703125 1.691406 -6.113281 2.234375 -6.40625 C 2.785156 -6.707031 3.398438 -6.859375 4.078125 -6.859375 C 4.578125 -6.859375 5.039062 -6.773438 5.46875 -6.609375 C 5.894531 -6.441406 6.257812 -6.195312 6.5625 -5.875 L 6.109375 -5.40625 C 5.578125 -5.945312 4.90625 -6.21875 4.09375 -6.21875 C 3.550781 -6.21875 3.0625 -6.09375 2.625 -5.84375 C 2.1875 -5.601562 1.84375 -5.269531 1.59375 -4.84375 C 1.34375 -4.414062 1.21875 -3.9375 1.21875 -3.40625 C 1.21875 -2.875 1.34375 -2.394531 1.59375 -1.96875 C 1.84375 -1.539062 2.1875 -1.203125 2.625 -0.953125 C 3.0625 -0.703125 3.550781 -0.578125 4.09375 -0.578125 C 4.90625 -0.578125 5.578125 -0.851562 6.109375 -1.40625 L 6.5625 -0.9375 C 6.257812 -0.613281 5.894531 -0.363281 5.46875 -0.1875 C 5.039062 -0.0195312 4.570312 0.0625 4.0625 0.0625 Z M 4.0625 0.0625 "/></g></g></g><g fill="#f6f5f5" fill-opacity="1"><g transform="translate(182.01276, 115.308256)"><g><path d="M 5.921875 -0.625 L 5.921875 0 L 1.109375 0 L 1.109375 -6.796875 L 5.765625 -6.796875 L 5.765625 -6.1875 L 1.828125 -6.1875 L 1.828125 -3.765625 L 5.34375 -3.765625 L 5.34375 -3.15625 L 1.828125 -3.15625 L 1.828125 -0.625 Z M 5.921875 -0.625 "/></g></g></g><g fill="#f6f5f5" fill-opacity="1"><g transform="translate(192.410001, 115.308256)"><g/></g></g><g fill="#f6f5f5" fill-opacity="1"><g transform="translate(198.8487, 115.308256)"><g><path d="M 2.390625 -6.796875 L 2.390625 0 L 1.6875 0 L 1.6875 -6.1875 L 0.09375 -6.1875 L 0.09375 -6.796875 Z M 2.390625 -6.796875 "/></g></g></g><g fill="#f6f5f5" fill-opacity="1"><g transform="translate(206.250284, 115.308256)"><g><path d="M 2.625 -6.859375 C 3.519531 -6.859375 4.207031 -6.5625 4.6875 -5.96875 C 5.164062 -5.375 5.40625 -4.535156 5.40625 -3.453125 C 5.40625 -2.703125 5.273438 -2.0625 5.015625 -1.53125 C 4.765625 -1.007812 4.40625 -0.613281 3.9375 -0.34375 C 3.46875 -0.0703125 2.921875 0.0625 2.296875 0.0625 C 1.628906 0.0625 1.09375 -0.0625 0.6875 -0.3125 L 0.96875 -0.875 C 1.289062 -0.65625 1.734375 -0.546875 2.296875 -0.546875 C 3.046875 -0.546875 3.632812 -0.785156 4.0625 -1.265625 C 4.488281 -1.742188 4.703125 -2.4375 4.703125 -3.34375 C 4.703125 -3.507812 4.691406 -3.691406 4.671875 -3.890625 C 4.503906 -3.523438 4.234375 -3.238281 3.859375 -3.03125 C 3.492188 -2.832031 3.070312 -2.734375 2.59375 -2.734375 C 2.144531 -2.734375 1.75 -2.816406 1.40625 -2.984375 C 1.0625 -3.148438 0.789062 -3.382812 0.59375 -3.6875 C 0.394531 -4 0.296875 -4.359375 0.296875 -4.765625 C 0.296875 -5.179688 0.394531 -5.546875 0.59375 -5.859375 C 0.800781 -6.179688 1.082031 -6.425781 1.4375 -6.59375 C 1.789062 -6.769531 2.1875 -6.859375 2.625 -6.859375 Z M 2.703125 -3.328125 C 3.046875 -3.328125 3.347656 -3.390625 3.609375 -3.515625 C 3.867188 -3.648438 4.070312 -3.828125 4.21875 -4.046875 C 4.375 -4.273438 4.453125 -4.53125 4.453125 -4.8125 C 4.453125 -5.070312 4.378906 -5.3125 4.234375 -5.53125 C 4.097656 -5.75 3.894531 -5.925781 3.625 -6.0625 C 3.351562 -6.195312 3.03125 -6.265625 2.65625 -6.265625 C 2.164062 -6.265625 1.765625 -6.128906 1.453125 -5.859375 C 1.140625 -5.597656 0.984375 -5.242188 0.984375 -4.796875 C 0.984375 -4.347656 1.140625 -3.988281 1.453125 -3.71875 C 1.765625 -3.457031 2.179688 -3.328125 2.703125 -3.328125 Z M 2.703125 -3.328125 "/></g></g></g><g fill="#f6f5f5" fill-opacity="1"><g transform="translate(216.06395, 115.308256)"><g><path d="M 4.40625 -3.5625 C 4.832031 -3.425781 5.160156 -3.210938 5.390625 -2.921875 C 5.617188 -2.640625 5.734375 -2.296875 5.734375 -1.890625 C 5.734375 -1.492188 5.625 -1.148438 5.40625 -0.859375 C 5.195312 -0.566406 4.890625 -0.335938 4.484375 -0.171875 C 4.085938 -0.015625 3.625 0.0625 3.09375 0.0625 C 2.269531 0.0625 1.625 -0.109375 1.15625 -0.453125 C 0.695312 -0.804688 0.46875 -1.285156 0.46875 -1.890625 C 0.46875 -2.296875 0.578125 -2.640625 0.796875 -2.921875 C 1.023438 -3.210938 1.351562 -3.425781 1.78125 -3.5625 C 1.425781 -3.695312 1.15625 -3.890625 0.96875 -4.140625 C 0.789062 -4.398438 0.703125 -4.707031 0.703125 -5.0625 C 0.703125 -5.613281 0.914062 -6.050781 1.34375 -6.375 C 1.78125 -6.695312 2.363281 -6.859375 3.09375 -6.859375 C 3.570312 -6.859375 3.988281 -6.785156 4.34375 -6.640625 C 4.707031 -6.492188 4.988281 -6.285156 5.1875 -6.015625 C 5.382812 -5.742188 5.484375 -5.425781 5.484375 -5.0625 C 5.484375 -4.707031 5.390625 -4.398438 5.203125 -4.140625 C 5.015625 -3.890625 4.75 -3.695312 4.40625 -3.5625 Z M 1.40625 -5.046875 C 1.40625 -4.671875 1.550781 -4.367188 1.84375 -4.140625 C 2.144531 -3.921875 2.5625 -3.8125 3.09375 -3.8125 C 3.613281 -3.8125 4.023438 -3.921875 4.328125 -4.140625 C 4.628906 -4.367188 4.78125 -4.664062 4.78125 -5.03125 C 4.78125 -5.414062 4.625 -5.71875 4.3125 -5.9375 C 4.007812 -6.15625 3.601562 -6.265625 3.09375 -6.265625 C 2.570312 -6.265625 2.160156 -6.15625 1.859375 -5.9375 C 1.554688 -5.71875 1.40625 -5.421875 1.40625 -5.046875 Z M 3.09375 -0.53125 C 3.695312 -0.53125 4.164062 -0.648438 4.5 -0.890625 C 4.84375 -1.140625 5.015625 -1.476562 5.015625 -1.90625 C 5.015625 -2.320312 4.84375 -2.648438 4.5 -2.890625 C 4.164062 -3.140625 3.695312 -3.265625 3.09375 -3.265625 C 2.5 -3.265625 2.03125 -3.140625 1.6875 -2.890625 C 1.34375 -2.648438 1.171875 -2.320312 1.171875 -1.90625 C 1.171875 -1.476562 1.335938 -1.140625 1.671875 -0.890625 C 2.015625 -0.648438 2.488281 -0.53125 3.09375 -0.53125 Z M 3.09375 -0.53125 "/></g></g></g><g fill="#f6f5f5" fill-opacity="1"><g transform="translate(226.159679, 115.308256)"><g><path d="M 4.40625 -3.5625 C 4.832031 -3.425781 5.160156 -3.210938 5.390625 -2.921875 C 5.617188 -2.640625 5.734375 -2.296875 5.734375 -1.890625 C 5.734375 -1.492188 5.625 -1.148438 5.40625 -0.859375 C 5.195312 -0.566406 4.890625 -0.335938 4.484375 -0.171875 C 4.085938 -0.015625 3.625 0.0625 3.09375 0.0625 C 2.269531 0.0625 1.625 -0.109375 1.15625 -0.453125 C 0.695312 -0.804688 0.46875 -1.285156 0.46875 -1.890625 C 0.46875 -2.296875 0.578125 -2.640625 0.796875 -2.921875 C 1.023438 -3.210938 1.351562 -3.425781 1.78125 -3.5625 C 1.425781 -3.695312 1.15625 -3.890625 0.96875 -4.140625 C 0.789062 -4.398438 0.703125 -4.707031 0.703125 -5.0625 C 0.703125 -5.613281 0.914062 -6.050781 1.34375 -6.375 C 1.78125 -6.695312 2.363281 -6.859375 3.09375 -6.859375 C 3.570312 -6.859375 3.988281 -6.785156 4.34375 -6.640625 C 4.707031 -6.492188 4.988281 -6.285156 5.1875 -6.015625 C 5.382812 -5.742188 5.484375 -5.425781 5.484375 -5.0625 C 5.484375 -4.707031 5.390625 -4.398438 5.203125 -4.140625 C 5.015625 -3.890625 4.75 -3.695312 4.40625 -3.5625 Z M 1.40625 -5.046875 C 1.40625 -4.671875 1.550781 -4.367188 1.84375 -4.140625 C 2.144531 -3.921875 2.5625 -3.8125 3.09375 -3.8125 C 3.613281 -3.8125 4.023438 -3.921875 4.328125 -4.140625 C 4.628906 -4.367188 4.78125 -4.664062 4.78125 -5.03125 C 4.78125 -5.414062 4.625 -5.71875 4.3125 -5.9375 C 4.007812 -6.15625 3.601562 -6.265625 3.09375 -6.265625 C 2.570312 -6.265625 2.160156 -6.15625 1.859375 -5.9375 C 1.554688 -5.71875 1.40625 -5.421875 1.40625 -5.046875 Z M 3.09375 -0.53125 C 3.695312 -0.53125 4.164062 -0.648438 4.5 -0.890625 C 4.84375 -1.140625 5.015625 -1.476562 5.015625 -1.90625 C 5.015625 -2.320312 4.84375 -2.648438 4.5 -2.890625 C 4.164062 -3.140625 3.695312 -3.265625 3.09375 -3.265625 C 2.5 -3.265625 2.03125 -3.140625 1.6875 -2.890625 C 1.34375 -2.648438 1.171875 -2.320312 1.171875 -1.90625 C 1.171875 -1.476562 1.335938 -1.140625 1.671875 -0.890625 C 2.015625 -0.648438 2.488281 -0.53125 3.09375 -0.53125 Z M 3.09375 -0.53125 "/></g></g></g><path stroke-linecap="round" transform="matrix(1.59441, 0, 0, 1.59441, 19.588393, 91.747408)" fill="none" stroke-linejoin="miter" d="M 0.500703 0.498969 L 210.124618 0.498969 " stroke="#f6f5f5" stroke-width="1" stroke-opacity="1" stroke-miterlimit="4"/><path stroke-linecap="round" transform="matrix(1.59441, 0, 0, 1.59441, 17.715714, 39.633618)" fill="none" stroke-linejoin="miter" d="M 0.499247 0.499288 L 210.125612 0.499288 " stroke="#f6f5f5" stroke-width="1" stroke-opacity="1" stroke-miterlimit="4"/></svg>